Coordinates
version=1
nRows=10
nColumns=46
inDegrees=yes

Units are S.I. units (second, meters, Newtons, ...)
Angles are in degrees.

endheader
time	pelvis_tilt	pelvis_list	pelvis_rotation	pelvis_tx	pelvis_ty	pelvis_tz	bb_angle	bb_tx	bb_ty	bb_tz	hip_flexion_r	hip_adduction_r	hip_rotation_r	knee_angle_r	knee_angle_r_beta	ankle_angle_r	subtalar_angle_r	mtp_angle_r	crank_angle_r	hip_flexion_l	hip_adduction_l	hip_rotation_l	knee_angle_l	knee_angle_l_beta	ankle_angle_l	subtalar_angle_l	mtp_angle_l	crank_angle_l	lumbar_extension	lumbar_bending	lumbar_rotation	arm_flex_r	arm_add_r	arm_rot_r	elbow_flex_r	pro_sup_r	wrist_flex_r	wrist_dev_r	arm_flex_l	arm_add_l	arm_rot_l	elbow_flex_l	pro_sup_l	wrist_flex_l	wrist_dev_l
      0.00500000	    -15.22082703	     -0.99953327	     -2.27062690	      0.18263063	      1.04204227	     -0.30826387	      0.00000000	      0.50000000	      0.00000000	      0.25000000	     85.54363700	     -2.81295463	      2.66407577	     87.82133804	      1.53277150	      9.68712164	     -5.69317887	      0.00000000	      0.00000000	     55.75226820	    -10.07316180	     -1.17995568	     77.32326834	      1.34954562	    -15.67448734	    -11.85798955	      0.00000000	      0.00000000	    -55.93965815	      0.22881786	      3.16997555	     89.75071254	     -0.14493612	     30.48701067	     25.45339114	     20.45280095	      0.00000000	      0.00000000	     89.59334710	      1.76973893	     30.85865029	     23.60545214	     21.52671178	      0.00000000	      0.00000000
      0.01000000	    -15.22751637	     -1.03139884	     -2.26421897	      0.18263181	      1.04202416	     -0.30828945	      0.00000000	      0.50000000	      0.00000000	      0.25000000	     85.55202142	     -2.82056351	      2.61933728	     87.83010419	      1.53292450	      9.66894205	     -5.72299508	      0.00000000	      0.00000000	     55.76281935	    -10.08942565	     -1.14861675	     77.32759904	      1.34962121	    -15.62080875	    -11.85147875	      0.00000000	      0.00000000	    -55.91062363	      0.23731366	      3.21341724	     89.75318244	     -0.45926481	     32.11231143	     25.09141494	     21.25518111	      0.00000000	      0.00000000	     89.59617851	      1.68846269	     31.51399563	     23.22178768	     23.44071736	      0.00000000	      0.00000000
      0.01500000	    -15.24991057	     -1.01213948	     -2.26922370	      0.18262348	      1.04201032	     -0.30827217	      0.00000000	      0.50000000	      0.00000000	      0.25000000	     85.57988449	     -2.82156216	      2.63902717	     87.82990734	      1.53292106	      9.67141333	     -5.70329436	      0.00000000	      0.00000000	     55.77028987	    -10.07262864	     -1.16113159	     77.30434328	      1.34921532	    -15.66381938	    -11.85656139	      0.00000000	      0.00000000	    -55.88532541	      0.21830616	      3.19057488	     89.75376120	     -0.50931543	     32.37400363	     24.96637767	     21.65590132	      0.00000000	      0.00000000	     89.59673800	      1.66274264	     31.58052237	     23.02936743	     24.62868729	      0.00000000	      0.00000000
      0.02000000	    -15.31391937	     -1.01181665	     -2.47917451	      0.18259262	      1.04184781	     -0.30832001	      0.00000000	      0.50000000	      0.00000000	      0.25000000	     85.55157103	     -2.59325165	      2.70904456	     87.77082283	      1.53188985	     10.09098323	     -5.69064974	      0.00000000	      0.00000000	     55.81828271	    -10.24363333	     -1.30482356	     77.33302360	      1.34971588	    -15.68888081	    -11.86803704	      0.00000000	      0.00000000	    -55.93785894	      0.14078806	      3.33523785	     89.74684669	     -0.62396446	     31.35792445	     25.84081870	     22.63267580	      0.00000000	      0.00000000	     89.57055396	      1.44880326	     30.65244673	     23.96117101	     25.52310141	      0.00000000	      0.00000000
      0.02500000	    -15.18479095	     -1.06519717	     -2.49138828	      0.18246352	      1.04243551	     -0.30799907	      0.00000000	      0.50000000	      0.00000000	      0.25000000	     85.39844135	     -2.56445630	      2.66160823	     87.77318837	      1.53193113	      9.99405918	     -5.65369932	      0.00000000	      0.00000000	     55.64382922	    -10.29875453	     -1.30246031	     77.23779014	      1.34805374	    -15.85750398	    -12.16656658	      0.00000000	      0.00000000	    -56.09754384	      0.15531607	      3.38772231	     89.75414186	     -0.40314318	     30.51587081	     25.65904504	     23.30317695	      0.00000000	      0.00000000	     89.56757341	      1.63083434	     29.94750327	     23.82711838	     26.15402644	      0.00000000	      0.00000000
      0.03000000	    -15.40199154	     -1.03964209	     -2.51197334	      0.18246819	      1.04200722	     -0.30788187	      0.00000000	      0.50000000	      0.00000000	      0.25000000	     85.67033364	     -2.53133159	      2.71326777	     87.82334706	      1.53280657	      9.93064954	     -5.62604382	      0.00000000	      0.00000000	     55.89847622	    -10.29256485	     -1.25812512	     77.29511545	      1.34905426	    -15.64524096	    -11.79423167	      0.00000000	      0.00000000	    -55.72910657	      0.12330124	      3.36769490	     89.75222848	     -0.51510764	     32.52929817	     24.98967468	     21.47997427	      0.00000000	      0.00000000	     89.59310768	      1.63661711	     31.49946407	     22.77836878	     24.95281919	      0.00000000	      0.00000000
      0.03500000	    -15.35689550	     -0.98859584	     -2.47252654	      0.18244500	      1.04213056	     -0.30794203	      0.00000000	      0.50000000	      0.00000000	      0.25000000	     85.64353969	     -2.59963313	      2.75426021	     87.84228946	      1.53313717	      9.96484978	     -5.57246863	      0.00000000	      0.00000000	     55.82934422	    -10.20932449	     -1.27701373	     77.25482784	      1.34835111	    -15.65053096	    -11.82394108	      0.00000000	      0.00000000	    -55.81843769	      0.12989852	      3.28791311	     89.74882618	     -0.03807819	     29.39649822	     24.94879375	     23.72541075	      0.00000000	      0.00000000	     89.59007855	      1.94592389	     29.15210312	     22.71601525	     26.34536039	      0.00000000	      0.00000000
      0.04000000	    -15.39630853	     -1.04476317	     -2.51700536	      0.18251871	      1.04198766	     -0.30798044	      0.00000000	      0.50000000	      0.00000000	      0.25000000	     85.68319928	     -2.55248616	      2.72362407	     87.85366361	      1.53333569	     10.01361285	     -5.46557097	      0.00000000	      0.00000000	     55.88491245	    -10.29257227	     -1.26194608	     77.29575426	      1.34906541	    -15.59558762	    -11.76259737	      0.00000000	      0.00000000	    -55.73449139	      0.14586131	      3.36421414	     89.75190523	     -0.40918273	     31.96972360	     25.47419765	     19.57954706	      0.00000000	      0.00000000	     89.58929579	      1.59654198	     31.76523874	     23.06179844	     23.39491246	      0.00000000	      0.00000000
      0.04500000	    -15.41545556	     -1.06585292	     -2.54056365	      0.18249544	      1.04198725	     -0.30799630	      0.00000000	      0.50000000	      0.00000000	      0.25000000	     85.70435957	     -2.53122368	      2.69333224	     87.84559480	      1.53319486	      9.98446125	     -5.51821279	      0.00000000	      0.00000000	     55.90742104	    -10.31241830	     -1.25285881	     77.29123821	      1.34898659	    -15.64592399	    -11.82436058	      0.00000000	      0.00000000	    -55.73191602	      0.14553847	      3.37810197	     89.74948302	     -0.14155781	     30.40191630	     25.27203036	     21.28907590	      0.00000000	      0.00000000	     89.58698219	      1.79461603	     30.39545745	     23.02919069	     23.77612247	      0.00000000	      0.00000000
      0.05000000	    -15.36410677	     -1.02488693	     -2.57456029	      0.18250458	      1.04210789	     -0.30794011	      0.00000000	      0.50000000	      0.00000000	      0.25000000	     85.66892843	     -2.51183809	      2.72624232	     87.87489097	      1.53370618	      9.96158211	     -5.54089323	      0.00000000	      0.00000000	     55.81947003	    -10.31285463	     -1.31151680	     77.26018658	      1.34844464	    -15.62073673	    -11.80953474	      0.00000000	      0.00000000	    -55.81206004	      0.10951718	      3.37003292	     89.74790879	      0.07108373	     29.00670882	     25.20569339	     22.83033440	      0.00000000	      0.00000000	     89.58527589	      1.92441165	     29.21793722	     23.00878203	     24.80740273	      0.00000000	      0.00000000
